<svg xmlns="http://www.w3.org/2000/svg" xmlns:xlink="http://www.w3.org/1999/xlink" width="70" zoomAndPan="magnify" viewBox="0 0 52.5 52.499999" height="70" preserveAspectRatio="xMidYMid meet" version="1.0"><defs><g/><clipPath id="525fcecc38"><path d="M 0 0 L 52.003906 0 L 52.003906 52.003906 L 0 52.003906 Z M 0 0 " clip-rule="nonzero"/></clipPath></defs><g clip-path="url(#525fcecc38)"><path fill="#ffffff" d="M 0 0 L 52.003906 0 L 52.003906 52.003906 L 0 52.003906 Z M 0 0 " fill-opacity="1" fill-rule="nonzero"/><path fill="#ffffff" d="M 0 0 L 52.003906 0 L 52.003906 52.003906 L 0 52.003906 Z M 0 0 " fill-opacity="1" fill-rule="nonzero"/></g><g fill="#282642" fill-opacity="1"><g transform="translate(4.188658, 31.390243)"><g><path d="M 33.6875 0.25 C 33.707031 0.257812 33.722656 0.273438 33.734375 0.296875 C 33.753906 0.328125 33.765625 0.359375 33.765625 0.390625 C 33.765625 0.441406 33.75 0.476562 33.71875 0.5 C 33.695312 0.53125 33.664062 0.546875 33.625 0.546875 L 33.484375 0.53125 C 33.472656 0.539062 33.460938 0.546875 33.453125 0.546875 C 30.972656 0.410156 28.523438 0.328125 26.109375 0.296875 C 23.703125 0.265625 21.273438 0.253906 18.828125 0.265625 C 18.421875 0.265625 18.019531 0.265625 17.625 0.265625 C 17.382812 0.265625 17.1875 0.3125 17.03125 0.40625 C 16.882812 0.5 16.753906 0.664062 16.640625 0.90625 C 16.015625 2.34375 15.375 3.773438 14.71875 5.203125 C 14.351562 5.972656 13.992188 6.75 13.640625 7.53125 C 13.390625 8.09375 13.140625 8.664062 12.890625 9.25 C 12.765625 9.539062 12.644531 9.828125 12.53125 10.109375 C 12.519531 10.140625 12.503906 10.171875 12.484375 10.203125 C 12.460938 10.285156 12.425781 10.359375 12.375 10.421875 C 12.300781 10.484375 12.195312 10.519531 12.0625 10.53125 C 11.9375 10.550781 11.828125 10.53125 11.734375 10.46875 C 11.640625 10.40625 11.613281 10.300781 11.65625 10.15625 C 11.75 9.90625 11.847656 9.664062 11.953125 9.4375 C 12.890625 7.28125 13.835938 5.125 14.796875 2.96875 C 15.023438 2.46875 15.253906 1.960938 15.484375 1.453125 C 15.515625 1.367188 15.546875 1.285156 15.578125 1.203125 C 15.660156 1.023438 15.738281 0.847656 15.8125 0.671875 C 15.894531 0.472656 15.847656 0.363281 15.671875 0.34375 C 14.421875 0.375 13.175781 0.429688 11.9375 0.515625 C 11.289062 0.546875 10.632812 0.578125 9.96875 0.609375 C 9.601562 0.617188 9.34375 0.796875 9.1875 1.140625 C 8.539062 2.535156 7.867188 3.921875 7.171875 5.296875 C 6.753906 6.117188 6.335938 6.9375 5.921875 7.75 C 5.765625 8.039062 5.609375 8.335938 5.453125 8.640625 C 5.359375 8.828125 5.257812 9.003906 5.15625 9.171875 C 5.039062 9.316406 4.890625 9.40625 4.703125 9.4375 C 4.523438 9.46875 4.367188 9.457031 4.234375 9.40625 C 4.097656 9.351562 4.035156 9.269531 4.046875 9.15625 C 4.097656 8.925781 4.164062 8.707031 4.25 8.5 C 4.957031 6.6875 5.726562 4.910156 6.5625 3.171875 C 6.863281 2.546875 7.160156 1.921875 7.453125 1.296875 C 7.535156 1.097656 7.484375 0.988281 7.296875 0.96875 C 7.109375 0.945312 6.832031 0.957031 6.46875 1 C 6.457031 1 6.441406 1 6.421875 1 C 5.785156 1.050781 5.132812 1.132812 4.46875 1.25 C 3.8125 1.375 3.378906 1.460938 3.171875 1.515625 C 2.960938 1.566406 2.753906 1.59375 2.546875 1.59375 C 2.523438 1.601562 2.507812 1.609375 2.5 1.609375 C 2.476562 1.609375 2.457031 1.601562 2.4375 1.59375 L 2.328125 1.609375 C 2.285156 1.609375 2.242188 1.59375 2.203125 1.5625 C 2.160156 1.53125 2.140625 1.492188 2.140625 1.453125 C 2.148438 1.421875 2.164062 1.382812 2.1875 1.34375 C 2.207031 1.300781 2.234375 1.273438 2.265625 1.265625 C 3.054688 0.984375 3.863281 0.789062 4.6875 0.6875 C 5.613281 0.539062 6.546875 0.421875 7.484375 0.328125 C 7.796875 0.316406 8.015625 0.175781 8.140625 -0.09375 C 8.421875 -0.65625 8.707031 -1.21875 9 -1.78125 C 9.351562 -2.4375 9.710938 -3.09375 10.078125 -3.75 C 10.203125 -4 10.332031 -4.25 10.46875 -4.5 C 10.476562 -4.519531 10.492188 -4.539062 10.515625 -4.5625 C 10.546875 -4.644531 10.585938 -4.71875 10.640625 -4.78125 C 10.878906 -5.070312 11.082031 -5.382812 11.25 -5.71875 C 11.425781 -6.050781 11.582031 -6.394531 11.71875 -6.75 C 11.78125 -6.894531 11.84375 -7.046875 11.90625 -7.203125 C 13.09375 -9.878906 14.269531 -12.566406 15.4375 -15.265625 C 15.96875 -16.441406 16.375 -17.65625 16.65625 -18.90625 C 16.769531 -19.363281 16.800781 -19.816406 16.75 -20.265625 C 16.6875 -20.523438 16.507812 -20.660156 16.21875 -20.671875 C 15.9375 -20.691406 15.59375 -20.617188 15.1875 -20.453125 C 14.78125 -20.296875 14.359375 -20.101562 13.921875 -19.875 C 13.484375 -19.65625 13.085938 -19.4375 12.734375 -19.21875 C 12.378906 -19 12.117188 -18.835938 11.953125 -18.734375 C 11.898438 -18.703125 11.863281 -18.679688 11.84375 -18.671875 C 7.226562 -15.796875 3.097656 -12.347656 -0.546875 -8.328125 C -0.941406 -7.890625 -1.320312 -7.429688 -1.6875 -6.953125 C -2.0625 -6.484375 -2.40625 -5.988281 -2.71875 -5.46875 C -2.945312 -5.070312 -3.128906 -4.660156 -3.265625 -4.234375 C -3.441406 -3.566406 -3.394531 -3.054688 -3.125 -2.703125 C -2.863281 -2.359375 -2.46875 -2.128906 -1.9375 -2.015625 C -1.40625 -1.898438 -0.828125 -1.859375 -0.203125 -1.890625 C 0.421875 -1.921875 1.007812 -1.984375 1.5625 -2.078125 C 2.113281 -2.171875 2.539062 -2.265625 2.84375 -2.359375 C 3.207031 -2.441406 3.570312 -2.523438 3.9375 -2.609375 C 4.25 -2.671875 4.335938 -2.648438 4.203125 -2.546875 C 4.066406 -2.453125 3.765625 -2.316406 3.296875 -2.140625 C 2.835938 -1.972656 2.285156 -1.804688 1.640625 -1.640625 C 0.992188 -1.472656 0.328125 -1.351562 -0.359375 -1.28125 C -1.046875 -1.21875 -1.691406 -1.234375 -2.296875 -1.328125 C -2.898438 -1.429688 -3.390625 -1.65625 -3.765625 -2 C -4.148438 -2.351562 -4.347656 -2.875 -4.359375 -3.5625 C -4.359375 -3.582031 -4.359375 -3.601562 -4.359375 -3.625 C -4.328125 -4.050781 -4.222656 -4.460938 -4.046875 -4.859375 C -3.734375 -5.566406 -3.335938 -6.226562 -2.859375 -6.84375 C -2.359375 -7.5 -1.832031 -8.132812 -1.28125 -8.75 C 2.257812 -12.632812 6.25 -15.984375 10.6875 -18.796875 C 11.207031 -19.140625 11.8125 -19.507812 12.5 -19.90625 C 13.195312 -20.300781 13.910156 -20.632812 14.640625 -20.90625 C 15.378906 -21.175781 16.066406 -21.296875 16.703125 -21.265625 C 17.410156 -21.234375 17.796875 -20.867188 17.859375 -20.171875 C 17.890625 -19.910156 17.890625 -19.65625 17.859375 -19.40625 C 17.828125 -19.15625 17.78125 -18.910156 17.71875 -18.671875 C 17.707031 -18.628906 17.695312 -18.59375 17.6875 -18.5625 C 17.5625 -17.96875 17.394531 -17.390625 17.1875 -16.828125 C 16.976562 -16.265625 16.757812 -15.707031 16.53125 -15.15625 C 14.507812 -10.363281 12.394531 -5.617188 10.1875 -0.921875 C 10.125 -0.785156 10.0625 -0.644531 10 -0.5 C 9.90625 -0.269531 9.914062 -0.109375 10.03125 -0.015625 C 10.15625 0.0664062 10.351562 0.109375 10.625 0.109375 C 10.90625 0.109375 11.234375 0.09375 11.609375 0.0625 C 11.671875 0.0625 11.734375 0.0546875 11.796875 0.046875 C 12.035156 0.0351562 12.285156 0.0195312 12.546875 0 C 13.671875 -0.0820312 14.789062 -0.140625 15.90625 -0.171875 C 16.101562 -0.171875 16.238281 -0.253906 16.3125 -0.421875 C 16.40625 -0.597656 16.492188 -0.78125 16.578125 -0.96875 C 18.023438 -4.164062 19.53125 -7.332031 21.09375 -10.46875 C 22.664062 -13.601562 24.257812 -16.726562 25.875 -19.84375 C 25.894531 -19.882812 25.914062 -19.925781 25.9375 -19.96875 C 26 -20.113281 26.085938 -20.238281 26.203125 -20.34375 C 26.285156 -20.382812 26.382812 -20.40625 26.5 -20.40625 C 26.625 -20.40625 26.726562 -20.378906 26.8125 -20.328125 C 26.894531 -20.273438 26.910156 -20.179688 26.859375 -20.046875 C 26.859375 -20.015625 26.847656 -19.976562 26.828125 -19.9375 C 26.691406 -19.601562 26.546875 -19.273438 26.390625 -18.953125 C 25.597656 -17.347656 24.796875 -15.75 23.984375 -14.15625 C 23.703125 -13.59375 23.421875 -13.023438 23.140625 -12.453125 C 21.253906 -8.703125 19.414062 -4.929688 17.625 -1.140625 C 17.59375 -1.078125 17.554688 -1.007812 17.515625 -0.9375 C 17.472656 -0.851562 17.4375 -0.773438 17.40625 -0.703125 C 17.300781 -0.460938 17.296875 -0.304688 17.390625 -0.234375 C 17.484375 -0.171875 17.632812 -0.148438 17.84375 -0.171875 C 20 -0.285156 22.191406 -0.3125 24.421875 -0.25 C 26.660156 -0.1875 28.882812 -0.0976562 31.09375 0.015625 C 31.769531 0.046875 32.441406 0.0820312 33.109375 0.125 C 33.140625 0.125 33.164062 0.125 33.1875 0.125 C 33.269531 0.125 33.351562 0.128906 33.4375 0.140625 C 33.53125 0.160156 33.613281 0.195312 33.6875 0.25 Z M 33.6875 0.25 "/></g></g></g><g fill="#282642" fill-opacity="1"><g transform="translate(25.431687, 31.390243)"><g><path d="M 4.859375 -3.40625 C 4.960938 -3.351562 4.972656 -3.210938 4.890625 -2.984375 C 4.753906 -2.804688 4.613281 -2.644531 4.46875 -2.5 C 4.320312 -2.351562 4.160156 -2.222656 3.984375 -2.109375 C 3.972656 -2.109375 3.96875 -2.101562 3.96875 -2.09375 C 3.851562 -2.007812 3.726562 -1.941406 3.59375 -1.890625 C 2.53125 -1.503906 1.988281 -1.726562 1.96875 -2.5625 C 1.53125 -2.1875 1.238281 -1.957031 1.09375 -1.875 C 0.738281 -1.664062 0.359375 -1.570312 -0.046875 -1.59375 C -0.359375 -1.601562 -0.566406 -1.691406 -0.671875 -1.859375 C -0.785156 -2.035156 -0.773438 -2.265625 -0.640625 -2.546875 C -0.441406 -2.992188 -0.164062 -3.394531 0.1875 -3.75 C 0.613281 -4.144531 1.085938 -4.460938 1.609375 -4.703125 C 1.890625 -4.835938 2.179688 -4.890625 2.484375 -4.859375 C 2.785156 -4.835938 2.96875 -4.664062 3.03125 -4.34375 C 3.0625 -4.25 3.035156 -4.160156 2.953125 -4.078125 C 2.859375 -3.992188 2.742188 -3.976562 2.609375 -4.03125 C 2.609375 -4.03125 2.597656 -4.03125 2.578125 -4.03125 C 2.566406 -4.03125 2.554688 -4.035156 2.546875 -4.046875 C 2.410156 -4.222656 2.273438 -4.296875 2.140625 -4.265625 C 2.015625 -4.242188 1.878906 -4.1875 1.734375 -4.09375 C 1.046875 -3.695312 0.53125 -3.140625 0.1875 -2.421875 C 0.175781 -2.390625 0.164062 -2.351562 0.15625 -2.3125 C 0.15625 -2.269531 0.164062 -2.238281 0.1875 -2.21875 C 0.269531 -2.1875 0.359375 -2.191406 0.453125 -2.234375 C 0.554688 -2.273438 0.65625 -2.332031 0.75 -2.40625 C 0.851562 -2.476562 0.9375 -2.539062 1 -2.59375 C 1.007812 -2.601562 1.015625 -2.609375 1.015625 -2.609375 C 1.347656 -2.878906 1.671875 -3.160156 1.984375 -3.453125 C 2.117188 -3.597656 2.289062 -3.675781 2.5 -3.6875 C 2.789062 -3.6875 2.910156 -3.554688 2.859375 -3.296875 C 2.835938 -3.203125 2.8125 -3.101562 2.78125 -3 C 2.664062 -2.582031 2.660156 -2.332031 2.765625 -2.25 C 2.867188 -2.175781 3.03125 -2.175781 3.25 -2.25 C 3.476562 -2.332031 3.703125 -2.472656 3.921875 -2.671875 C 4.140625 -2.878906 4.320312 -3.066406 4.46875 -3.234375 C 4.625 -3.410156 4.753906 -3.46875 4.859375 -3.40625 Z M 4.859375 -3.40625 "/></g></g></g><g fill="#282642" fill-opacity="1"><g transform="translate(29.877435, 31.390243)"><g><path d="M 3.25 -3.40625 C 2.539062 -3.132812 2.03125 -2.914062 1.71875 -2.75 C 1.488281 -2.644531 1.359375 -2.554688 1.328125 -2.484375 C 1.296875 -2.410156 1.320312 -2.273438 1.40625 -2.078125 C 1.40625 -2.066406 1.410156 -2.050781 1.421875 -2.03125 C 1.515625 -1.789062 1.570312 -1.546875 1.59375 -1.296875 C 1.625 -0.773438 1.1875 -0.410156 0.28125 -0.203125 C -0.625 -0.00390625 -1.226562 0 -1.53125 -0.1875 C -1.832031 -0.382812 -1.925781 -0.628906 -1.8125 -0.921875 C -1.695312 -1.222656 -1.390625 -1.523438 -0.890625 -1.828125 C -0.390625 -2.128906 -0.0546875 -2.347656 0.109375 -2.484375 C 0.273438 -2.617188 0.320312 -2.769531 0.25 -2.9375 C 0.226562 -2.988281 0.207031 -3.046875 0.1875 -3.109375 C 0.125 -3.242188 0.0625 -3.382812 0 -3.53125 C -0.113281 -3.800781 -0.160156 -4.066406 -0.140625 -4.328125 C -0.128906 -4.585938 -0.0351562 -4.804688 0.140625 -4.984375 C 0.316406 -5.160156 0.585938 -5.253906 0.953125 -5.265625 C 1.171875 -5.273438 1.359375 -5.242188 1.515625 -5.171875 C 1.679688 -5.109375 1.816406 -4.992188 1.921875 -4.828125 C 1.992188 -4.703125 1.96875 -4.59375 1.84375 -4.5 C 1.757812 -4.425781 1.664062 -4.414062 1.5625 -4.46875 C 1.5 -4.488281 1.441406 -4.523438 1.390625 -4.578125 C 1.390625 -4.585938 1.390625 -4.59375 1.390625 -4.59375 C 1.359375 -4.613281 1.332031 -4.632812 1.3125 -4.65625 C 1.289062 -4.695312 1.265625 -4.726562 1.234375 -4.75 C 1.109375 -4.832031 0.988281 -4.859375 0.875 -4.828125 C 0.757812 -4.796875 0.671875 -4.703125 0.609375 -4.546875 C 0.566406 -4.429688 0.546875 -4.316406 0.546875 -4.203125 C 0.554688 -4.054688 0.59375 -3.910156 0.65625 -3.765625 C 0.6875 -3.679688 0.71875 -3.601562 0.75 -3.53125 C 0.832031 -3.332031 0.894531 -3.195312 0.9375 -3.125 C 0.988281 -3.050781 1.050781 -3.019531 1.125 -3.03125 C 1.195312 -3.039062 1.832031 -3.269531 3.03125 -3.71875 C 3.28125 -3.800781 3.351562 -3.695312 3.25 -3.40625 Z M 0.34375 -0.84375 C 0.65625 -0.945312 0.785156 -1.15625 0.734375 -1.46875 C 0.734375 -1.488281 0.726562 -1.515625 0.71875 -1.546875 C 0.707031 -1.710938 0.671875 -1.84375 0.609375 -1.9375 C 0.554688 -2.03125 0.4375 -2.023438 0.25 -1.921875 C -0.207031 -1.660156 -0.632812 -1.351562 -1.03125 -1 C -1.0625 -0.96875 -1.085938 -0.9375 -1.109375 -0.90625 C -1.109375 -0.90625 -1.113281 -0.898438 -1.125 -0.890625 C -1.144531 -0.859375 -1.144531 -0.816406 -1.125 -0.765625 C -1.113281 -0.722656 -1.078125 -0.703125 -1.015625 -0.703125 C -0.554688 -0.628906 -0.101562 -0.675781 0.34375 -0.84375 Z M 0.34375 -0.84375 "/></g></g></g><g fill="#282642" fill-opacity="1"><g transform="translate(32.847972, 31.390243)"><g><path d="M 3.828125 -2.5625 C 3.566406 -2.3125 3.265625 -2.097656 2.921875 -1.921875 C 2.578125 -1.742188 2.285156 -1.625 2.046875 -1.5625 C 1.816406 -1.507812 1.578125 -1.476562 1.328125 -1.46875 C 0.941406 -1.445312 0.582031 -1.5 0.25 -1.625 C -0.289062 -1.84375 -0.476562 -2.265625 -0.3125 -2.890625 C -0.15625 -3.421875 0.160156 -3.832031 0.640625 -4.125 C 1.117188 -4.425781 1.613281 -4.570312 2.125 -4.5625 C 2.257812 -4.570312 2.382812 -4.566406 2.5 -4.546875 C 2.695312 -4.472656 2.820312 -4.351562 2.875 -4.1875 C 2.925781 -4.03125 2.890625 -3.851562 2.765625 -3.65625 C 2.484375 -3.21875 2.097656 -2.976562 1.609375 -2.9375 C 1.273438 -2.90625 0.957031 -2.921875 0.65625 -2.984375 C 0.59375 -2.984375 0.539062 -2.960938 0.5 -2.921875 C 0.457031 -2.890625 0.429688 -2.84375 0.421875 -2.78125 C 0.328125 -2.394531 0.445312 -2.148438 0.78125 -2.046875 C 1.175781 -1.910156 1.59375 -1.910156 2.03125 -2.046875 C 2.53125 -2.203125 3.003906 -2.492188 3.453125 -2.921875 C 3.910156 -3.359375 4.171875 -3.5625 4.234375 -3.53125 C 4.304688 -3.507812 4.332031 -3.425781 4.3125 -3.28125 C 4.25 -3.0625 4.085938 -2.820312 3.828125 -2.5625 Z M 0.96875 -3.65625 C 0.9375 -3.625 0.914062 -3.585938 0.90625 -3.546875 C 0.894531 -3.515625 0.910156 -3.484375 0.953125 -3.453125 C 1.109375 -3.359375 1.273438 -3.320312 1.453125 -3.34375 C 1.640625 -3.375 1.796875 -3.445312 1.921875 -3.5625 C 2.054688 -3.675781 2.113281 -3.816406 2.09375 -3.984375 C 2.082031 -4.035156 2.050781 -4.066406 2 -4.078125 C 1.945312 -4.097656 1.894531 -4.101562 1.84375 -4.09375 C 1.519531 -4.039062 1.226562 -3.894531 0.96875 -3.65625 Z M 0.96875 -3.65625 "/></g></g></g><g fill="#282642" fill-opacity="1"><g transform="translate(36.750574, 31.390243)"><g><path d="M 3.828125 -2.5625 C 3.566406 -2.3125 3.265625 -2.097656 2.921875 -1.921875 C 2.578125 -1.742188 2.285156 -1.625 2.046875 -1.5625 C 1.816406 -1.507812 1.578125 -1.476562 1.328125 -1.46875 C 0.941406 -1.445312 0.582031 -1.5 0.25 -1.625 C -0.289062 -1.84375 -0.476562 -2.265625 -0.3125 -2.890625 C -0.15625 -3.421875 0.160156 -3.832031 0.640625 -4.125 C 1.117188 -4.425781 1.613281 -4.570312 2.125 -4.5625 C 2.257812 -4.570312 2.382812 -4.566406 2.5 -4.546875 C 2.695312 -4.472656 2.820312 -4.351562 2.875 -4.1875 C 2.925781 -4.03125 2.890625 -3.851562 2.765625 -3.65625 C 2.484375 -3.21875 2.097656 -2.976562 1.609375 -2.9375 C 1.273438 -2.90625 0.957031 -2.921875 0.65625 -2.984375 C 0.59375 -2.984375 0.539062 -2.960938 0.5 -2.921875 C 0.457031 -2.890625 0.429688 -2.84375 0.421875 -2.78125 C 0.328125 -2.394531 0.445312 -2.148438 0.78125 -2.046875 C 1.175781 -1.910156 1.59375 -1.910156 2.03125 -2.046875 C 2.53125 -2.203125 3.003906 -2.492188 3.453125 -2.921875 C 3.910156 -3.359375 4.171875 -3.5625 4.234375 -3.53125 C 4.304688 -3.507812 4.332031 -3.425781 4.3125 -3.28125 C 4.25 -3.0625 4.085938 -2.820312 3.828125 -2.5625 Z M 0.96875 -3.65625 C 0.9375 -3.625 0.914062 -3.585938 0.90625 -3.546875 C 0.894531 -3.515625 0.910156 -3.484375 0.953125 -3.453125 C 1.109375 -3.359375 1.273438 -3.320312 1.453125 -3.34375 C 1.640625 -3.375 1.796875 -3.445312 1.921875 -3.5625 C 2.054688 -3.675781 2.113281 -3.816406 2.09375 -3.984375 C 2.082031 -4.035156 2.050781 -4.066406 2 -4.078125 C 1.945312 -4.097656 1.894531 -4.101562 1.84375 -4.09375 C 1.519531 -4.039062 1.226562 -3.894531 0.96875 -3.65625 Z M 0.96875 -3.65625 "/></g></g></g><g fill="#282642" fill-opacity="1"><g transform="translate(40.653176, 31.390243)"><g><path d="M 3.4375 -10.65625 C 3.457031 -10.6875 3.503906 -10.710938 3.578125 -10.734375 C 3.648438 -10.765625 3.722656 -10.785156 3.796875 -10.796875 C 3.878906 -10.804688 3.945312 -10.800781 4 -10.78125 C 4.0625 -10.769531 4.085938 -10.742188 4.078125 -10.703125 C 4.035156 -10.492188 3.960938 -10.289062 3.859375 -10.09375 C 3.847656 -10.070312 3.832031 -10.039062 3.8125 -10 C 3.445312 -9.144531 3.070312 -8.289062 2.6875 -7.4375 C 2.625 -7.3125 2.566406 -7.191406 2.515625 -7.078125 C 2.378906 -6.785156 2.207031 -6.4375 2 -6.03125 C 1.769531 -5.59375 1.578125 -5.191406 1.421875 -4.828125 C 1.578125 -5.015625 1.769531 -5.148438 2 -5.234375 C 2.238281 -5.328125 2.421875 -5.375 2.546875 -5.375 C 3.023438 -5.363281 3.285156 -5.128906 3.328125 -4.671875 C 3.410156 -4.148438 3.316406 -3.617188 3.046875 -3.078125 C 2.785156 -2.535156 2.4375 -2.09375 2 -1.75 C 1.632812 -1.539062 1.285156 -1.445312 0.953125 -1.46875 C 0.628906 -1.5 0.34375 -1.660156 0.09375 -1.953125 C 0.0625 -1.953125 0.03125 -1.9375 0 -1.90625 C -0.0390625 -1.882812 -0.0820312 -1.851562 -0.125 -1.8125 C -0.164062 -1.75 -0.21875 -1.703125 -0.28125 -1.671875 C -0.320312 -1.660156 -0.363281 -1.65625 -0.40625 -1.65625 C -0.445312 -1.664062 -0.484375 -1.679688 -0.515625 -1.703125 C -0.609375 -1.785156 -0.640625 -1.882812 -0.609375 -2 C -0.234375 -2.976562 0.203125 -4 0.703125 -5.0625 C 1.210938 -6.132812 1.722656 -7.175781 2.234375 -8.1875 C 2.453125 -8.632812 2.664062 -9.070312 2.875 -9.5 C 2.957031 -9.664062 3.039062 -9.835938 3.125 -10.015625 C 3.21875 -10.222656 3.320312 -10.4375 3.4375 -10.65625 Z M 1.75 -4.5625 C 1.40625 -4.320312 1.109375 -4.023438 0.859375 -3.671875 C 0.609375 -3.316406 0.519531 -2.941406 0.59375 -2.546875 C 0.625 -2.316406 0.710938 -2.15625 0.859375 -2.0625 C 1.015625 -1.96875 1.1875 -2.003906 1.375 -2.171875 C 1.570312 -2.347656 1.769531 -2.570312 1.96875 -2.84375 C 2.164062 -3.125 2.328125 -3.421875 2.453125 -3.734375 C 2.546875 -4.015625 2.601562 -4.257812 2.625 -4.46875 C 2.644531 -4.675781 2.585938 -4.800781 2.453125 -4.84375 C 2.328125 -4.882812 2.09375 -4.789062 1.75 -4.5625 Z M 1.75 -4.5625 "/></g></g></g><g fill="#ff4c60" fill-opacity="1"><g transform="translate(24.635986, 35.353698)"><g><path d="M 4.375 -2.671875 L 3.484375 0 L 2.828125 0 L 2.234375 -1.8125 L 1.625 0 L 0.96875 0 L 0.078125 -2.671875 L 0.734375 -2.671875 L 1.328125 -0.796875 L 1.96875 -2.671875 L 2.53125 -2.671875 L 3.15625 -0.78125 L 3.78125 -2.671875 Z M 4.375 -2.671875 "/></g></g></g><g fill="#ff4c60" fill-opacity="1"><g transform="translate(31.81302, 35.353698)"><g><path d="M 1.609375 0.046875 C 1.335938 0.046875 1.085938 -0.0078125 0.859375 -0.125 C 0.640625 -0.25 0.46875 -0.414062 0.34375 -0.625 C 0.21875 -0.84375 0.15625 -1.082031 0.15625 -1.34375 C 0.15625 -1.601562 0.21875 -1.835938 0.34375 -2.046875 C 0.46875 -2.253906 0.640625 -2.414062 0.859375 -2.53125 C 1.085938 -2.65625 1.335938 -2.71875 1.609375 -2.71875 C 1.890625 -2.71875 2.140625 -2.65625 2.359375 -2.53125 C 2.585938 -2.414062 2.765625 -2.253906 2.890625 -2.046875 C 3.015625 -1.835938 3.078125 -1.601562 3.078125 -1.34375 C 3.078125 -1.082031 3.015625 -0.84375 2.890625 -0.625 C 2.765625 -0.414062 2.585938 -0.25 2.359375 -0.125 C 2.140625 -0.0078125 1.890625 0.046875 1.609375 0.046875 Z M 1.609375 -0.484375 C 1.773438 -0.484375 1.921875 -0.519531 2.046875 -0.59375 C 2.171875 -0.664062 2.269531 -0.765625 2.34375 -0.890625 C 2.414062 -1.023438 2.453125 -1.175781 2.453125 -1.34375 C 2.453125 -1.507812 2.414062 -1.65625 2.34375 -1.78125 C 2.269531 -1.914062 2.171875 -2.019531 2.046875 -2.09375 C 1.921875 -2.164062 1.773438 -2.203125 1.609375 -2.203125 C 1.453125 -2.203125 1.3125 -2.164062 1.1875 -2.09375 C 1.0625 -2.019531 0.960938 -1.914062 0.890625 -1.78125 C 0.816406 -1.65625 0.78125 -1.507812 0.78125 -1.34375 C 0.78125 -1.175781 0.816406 -1.023438 0.890625 -0.890625 C 0.960938 -0.765625 1.0625 -0.664062 1.1875 -0.59375 C 1.3125 -0.519531 1.453125 -0.484375 1.609375 -0.484375 Z M 1.609375 -0.484375 "/></g></g></g><g fill="#ff4c60" fill-opacity="1"><g transform="translate(37.771323, 35.353698)"><g><path d="M 2.03125 0 L 1.515625 -0.75 L 0.9375 -0.75 L 0.9375 0 L 0.3125 0 L 0.3125 -2.671875 L 1.484375 -2.671875 C 1.710938 -2.671875 1.914062 -2.628906 2.09375 -2.546875 C 2.269531 -2.472656 2.40625 -2.363281 2.5 -2.21875 C 2.59375 -2.070312 2.640625 -1.898438 2.640625 -1.703125 C 2.640625 -1.503906 2.59375 -1.332031 2.5 -1.1875 C 2.40625 -1.039062 2.269531 -0.929688 2.09375 -0.859375 L 2.6875 0 Z M 2.015625 -1.703125 C 2.015625 -1.859375 1.960938 -1.972656 1.859375 -2.046875 C 1.765625 -2.128906 1.625 -2.171875 1.4375 -2.171875 L 0.9375 -2.171875 L 0.9375 -1.234375 L 1.4375 -1.234375 C 1.625 -1.234375 1.765625 -1.273438 1.859375 -1.359375 C 1.960938 -1.441406 2.015625 -1.554688 2.015625 -1.703125 Z M 2.015625 -1.703125 "/></g></g></g><g fill="#ff4c60" fill-opacity="1"><g transform="translate(43.31319, 35.353698)"><g><path d="M 1.296875 -1.046875 L 0.9375 -0.671875 L 0.9375 0 L 0.3125 0 L 0.3125 -2.671875 L 0.9375 -2.671875 L 0.9375 -1.421875 L 2.125 -2.671875 L 2.8125 -2.671875 L 1.703125 -1.484375 L 2.875 0 L 2.15625 0 Z M 1.296875 -1.046875 "/></g></g></g><g fill="#ff4c60" fill-opacity="1"><g transform="translate(48.874161, 35.353698)"><g><path d="M 1.203125 0.046875 C 0.984375 0.046875 0.773438 0.0195312 0.578125 -0.03125 C 0.378906 -0.09375 0.222656 -0.171875 0.109375 -0.265625 L 0.3125 -0.734375 C 0.425781 -0.648438 0.5625 -0.582031 0.71875 -0.53125 C 0.882812 -0.476562 1.046875 -0.453125 1.203125 -0.453125 C 1.378906 -0.453125 1.507812 -0.476562 1.59375 -0.53125 C 1.675781 -0.582031 1.71875 -0.648438 1.71875 -0.734375 C 1.71875 -0.796875 1.691406 -0.847656 1.640625 -0.890625 C 1.585938 -0.929688 1.523438 -0.960938 1.453125 -0.984375 C 1.378906 -1.015625 1.273438 -1.046875 1.140625 -1.078125 C 0.929688 -1.128906 0.757812 -1.175781 0.625 -1.21875 C 0.5 -1.269531 0.390625 -1.347656 0.296875 -1.453125 C 0.203125 -1.566406 0.15625 -1.710938 0.15625 -1.890625 C 0.15625 -2.046875 0.195312 -2.1875 0.28125 -2.3125 C 0.363281 -2.4375 0.488281 -2.535156 0.65625 -2.609375 C 0.832031 -2.679688 1.046875 -2.71875 1.296875 -2.71875 C 1.460938 -2.71875 1.625 -2.695312 1.78125 -2.65625 C 1.945312 -2.625 2.09375 -2.566406 2.21875 -2.484375 L 2.03125 -2.015625 C 1.78125 -2.160156 1.53125 -2.234375 1.28125 -2.234375 C 1.113281 -2.234375 0.988281 -2.203125 0.90625 -2.140625 C 0.820312 -2.085938 0.78125 -2.015625 0.78125 -1.921875 C 0.78125 -1.828125 0.828125 -1.757812 0.921875 -1.71875 C 1.015625 -1.675781 1.160156 -1.628906 1.359375 -1.578125 C 1.566406 -1.535156 1.734375 -1.488281 1.859375 -1.4375 C 1.992188 -1.382812 2.101562 -1.304688 2.1875 -1.203125 C 2.28125 -1.097656 2.328125 -0.957031 2.328125 -0.78125 C 2.328125 -0.632812 2.285156 -0.492188 2.203125 -0.359375 C 2.117188 -0.234375 1.988281 -0.132812 1.8125 -0.0625 C 1.644531 0.0078125 1.441406 0.046875 1.203125 0.046875 Z M 1.203125 0.046875 "/></g></g></g></svg>